<mxfile host="app.diagrams.net" modified="2022-06-19T09:49:48.575Z" agent="5.0 (Windows NT 10.0; Win64; x64) AppleWebKit/537.36 (KHTML, like Gecko) Chrome/102.0.0.0 Safari/537.36" etag="-D4Ha-KHybwo5FOiWZVO" version="20.0.1" type="github">
  <diagram id="veXu0EyfwMcHBt0nUoMI" name="Page-1">
    <mxGraphModel dx="1422" dy="839" grid="1" gridSize="10" guides="1" tooltips="1" connect="1" arrows="1" fold="1" page="1" pageScale="1" pageWidth="2339" pageHeight="3300" math="0" shadow="0">
      <root>
        <mxCell id="0" />
        <mxCell id="1" parent="0" />
        <mxCell id="dEzR0BeDHIfb-6gH03Ru-17" style="edgeStyle=orthogonalEdgeStyle;rounded=0;orthogonalLoop=1;jettySize=auto;html=1;fontSize=18;" edge="1" parent="1" source="dEzR0BeDHIfb-6gH03Ru-1">
          <mxGeometry relative="1" as="geometry">
            <mxPoint x="310" y="470" as="targetPoint" />
          </mxGeometry>
        </mxCell>
        <mxCell id="dEzR0BeDHIfb-6gH03Ru-1" value="&lt;b&gt;&lt;i&gt;&lt;font style=&quot;font-size: 18px;&quot;&gt;Zlbytes&lt;br&gt;总字节数&lt;br&gt;&lt;/font&gt;&lt;/i&gt;&lt;/b&gt;" style="rounded=0;whiteSpace=wrap;html=1;fillColor=#dae8fc;strokeColor=#6c8ebf;" vertex="1" parent="1">
          <mxGeometry x="250" y="580" width="120" height="60" as="geometry" />
        </mxCell>
        <mxCell id="dEzR0BeDHIfb-6gH03Ru-16" style="edgeStyle=orthogonalEdgeStyle;rounded=0;orthogonalLoop=1;jettySize=auto;html=1;fontSize=18;" edge="1" parent="1" source="dEzR0BeDHIfb-6gH03Ru-2">
          <mxGeometry relative="1" as="geometry">
            <mxPoint x="430" y="710" as="targetPoint" />
          </mxGeometry>
        </mxCell>
        <mxCell id="dEzR0BeDHIfb-6gH03Ru-2" value="&lt;b&gt;&lt;i&gt;&lt;font style=&quot;font-size: 18px;&quot;&gt;Zltail&lt;br&gt;尾偏移量&lt;br&gt;&lt;/font&gt;&lt;/i&gt;&lt;/b&gt;" style="rounded=0;whiteSpace=wrap;html=1;fillColor=#dae8fc;strokeColor=#6c8ebf;" vertex="1" parent="1">
          <mxGeometry x="370" y="580" width="120" height="60" as="geometry" />
        </mxCell>
        <mxCell id="dEzR0BeDHIfb-6gH03Ru-25" style="edgeStyle=orthogonalEdgeStyle;rounded=0;orthogonalLoop=1;jettySize=auto;html=1;fontSize=18;" edge="1" parent="1" source="dEzR0BeDHIfb-6gH03Ru-3">
          <mxGeometry relative="1" as="geometry">
            <mxPoint x="819.9999999999995" y="550" as="targetPoint" />
            <Array as="points">
              <mxPoint x="550" y="510" />
              <mxPoint x="820" y="510" />
            </Array>
          </mxGeometry>
        </mxCell>
        <mxCell id="dEzR0BeDHIfb-6gH03Ru-3" value="&lt;b&gt;&lt;i&gt;&lt;font style=&quot;font-size: 18px;&quot;&gt;Zllen&lt;br&gt;结点数量&lt;br&gt;&lt;/font&gt;&lt;/i&gt;&lt;/b&gt;" style="rounded=0;whiteSpace=wrap;html=1;fillColor=#dae8fc;strokeColor=#6c8ebf;" vertex="1" parent="1">
          <mxGeometry x="490" y="580" width="120" height="60" as="geometry" />
        </mxCell>
        <mxCell id="dEzR0BeDHIfb-6gH03Ru-4" value="&lt;b&gt;&lt;i&gt;entry1&lt;br&gt;结点1&lt;br&gt;&lt;/i&gt;&lt;/b&gt;" style="rounded=0;whiteSpace=wrap;html=1;fontSize=18;fillColor=#fff2cc;strokeColor=#d6b656;" vertex="1" parent="1">
          <mxGeometry x="610" y="580" width="120" height="60" as="geometry" />
        </mxCell>
        <mxCell id="dEzR0BeDHIfb-6gH03Ru-5" value="&lt;b&gt;&lt;i&gt;entry2&lt;br&gt;结点2&lt;br&gt;&lt;/i&gt;&lt;/b&gt;" style="rounded=0;whiteSpace=wrap;html=1;fontSize=18;fillColor=#fff2cc;strokeColor=#d6b656;" vertex="1" parent="1">
          <mxGeometry x="730" y="580" width="120" height="60" as="geometry" />
        </mxCell>
        <mxCell id="dEzR0BeDHIfb-6gH03Ru-6" value="&lt;b&gt;&lt;i&gt;......&lt;br&gt;&lt;/i&gt;&lt;/b&gt;" style="rounded=0;whiteSpace=wrap;html=1;fontSize=18;fillColor=#fff2cc;strokeColor=#d6b656;" vertex="1" parent="1">
          <mxGeometry x="850" y="580" width="120" height="60" as="geometry" />
        </mxCell>
        <mxCell id="dEzR0BeDHIfb-6gH03Ru-7" value="&lt;b&gt;&lt;i&gt;entryN&lt;br&gt;结点N&lt;br&gt;&lt;/i&gt;&lt;/b&gt;" style="rounded=0;whiteSpace=wrap;html=1;fontSize=18;fillColor=#fff2cc;strokeColor=#d6b656;" vertex="1" parent="1">
          <mxGeometry x="970" y="580" width="120" height="60" as="geometry" />
        </mxCell>
        <mxCell id="dEzR0BeDHIfb-6gH03Ru-8" value="&lt;b&gt;&lt;i&gt;zlend&lt;br&gt;结束标识&lt;/i&gt;&lt;/b&gt;&lt;b&gt;&lt;i&gt;&lt;br&gt;&lt;/i&gt;&lt;/b&gt;" style="rounded=0;whiteSpace=wrap;html=1;fontSize=18;fillColor=#f8cecc;strokeColor=#b85450;" vertex="1" parent="1">
          <mxGeometry x="1090" y="580" width="120" height="60" as="geometry" />
        </mxCell>
        <mxCell id="dEzR0BeDHIfb-6gH03Ru-9" value="" style="shape=link;html=1;rounded=0;fontSize=18;fillColor=#dae8fc;strokeColor=#6c8ebf;" edge="1" parent="1">
          <mxGeometry width="100" relative="1" as="geometry">
            <mxPoint x="250" y="440" as="sourcePoint" />
            <mxPoint x="250" y="580" as="targetPoint" />
          </mxGeometry>
        </mxCell>
        <mxCell id="dEzR0BeDHIfb-6gH03Ru-10" value="" style="shape=link;html=1;rounded=0;fontSize=18;fillColor=#dae8fc;strokeColor=#6c8ebf;" edge="1" parent="1">
          <mxGeometry width="100" relative="1" as="geometry">
            <mxPoint x="1210" y="440" as="sourcePoint" />
            <mxPoint x="1210" y="580" as="targetPoint" />
          </mxGeometry>
        </mxCell>
        <mxCell id="dEzR0BeDHIfb-6gH03Ru-11" value="" style="endArrow=classic;startArrow=classic;html=1;rounded=0;fontSize=18;" edge="1" parent="1">
          <mxGeometry width="50" height="50" relative="1" as="geometry">
            <mxPoint x="250" y="470" as="sourcePoint" />
            <mxPoint x="1210" y="470" as="targetPoint" />
          </mxGeometry>
        </mxCell>
        <mxCell id="dEzR0BeDHIfb-6gH03Ru-12" value="&lt;b&gt;&lt;i&gt;总字节数&lt;/i&gt;&lt;/b&gt;" style="edgeLabel;html=1;align=center;verticalAlign=middle;resizable=0;points=[];fontSize=18;" vertex="1" connectable="0" parent="dEzR0BeDHIfb-6gH03Ru-11">
          <mxGeometry x="-0.021" y="-6" relative="1" as="geometry">
            <mxPoint x="-10" y="-7" as="offset" />
          </mxGeometry>
        </mxCell>
        <mxCell id="dEzR0BeDHIfb-6gH03Ru-13" value="" style="shape=link;html=1;rounded=0;fontSize=18;fillColor=#dae8fc;strokeColor=#6c8ebf;" edge="1" parent="1">
          <mxGeometry width="100" relative="1" as="geometry">
            <mxPoint x="970" y="640" as="sourcePoint" />
            <mxPoint x="970" y="730" as="targetPoint" />
          </mxGeometry>
        </mxCell>
        <mxCell id="dEzR0BeDHIfb-6gH03Ru-14" value="" style="endArrow=classic;startArrow=classic;html=1;rounded=0;fontSize=18;" edge="1" parent="1">
          <mxGeometry width="50" height="50" relative="1" as="geometry">
            <mxPoint x="250" y="710" as="sourcePoint" />
            <mxPoint x="970" y="710" as="targetPoint" />
          </mxGeometry>
        </mxCell>
        <mxCell id="dEzR0BeDHIfb-6gH03Ru-15" value="&lt;b&gt;&lt;i&gt;尾结点与起始节点之间的字节数&lt;br&gt;用于O(1)索引最后一个结点&lt;br&gt;&lt;/i&gt;&lt;/b&gt;" style="edgeLabel;html=1;align=center;verticalAlign=middle;resizable=0;points=[];fontSize=18;" vertex="1" connectable="0" parent="dEzR0BeDHIfb-6gH03Ru-14">
          <mxGeometry x="-0.021" y="-6" relative="1" as="geometry">
            <mxPoint x="-10" y="-7" as="offset" />
          </mxGeometry>
        </mxCell>
        <mxCell id="dEzR0BeDHIfb-6gH03Ru-19" value="" style="shape=link;html=1;rounded=0;fontSize=18;fillColor=#ffe6cc;strokeColor=#d79b00;" edge="1" parent="1">
          <mxGeometry width="100" relative="1" as="geometry">
            <mxPoint x="610" y="540" as="sourcePoint" />
            <mxPoint x="610" y="580" as="targetPoint" />
          </mxGeometry>
        </mxCell>
        <mxCell id="dEzR0BeDHIfb-6gH03Ru-20" value="" style="shape=link;html=1;rounded=0;fontSize=18;fillColor=#ffe6cc;strokeColor=#d79b00;" edge="1" parent="1">
          <mxGeometry width="100" relative="1" as="geometry">
            <mxPoint x="1089" y="540" as="sourcePoint" />
            <mxPoint x="1089" y="580" as="targetPoint" />
          </mxGeometry>
        </mxCell>
        <mxCell id="dEzR0BeDHIfb-6gH03Ru-21" value="" style="endArrow=classic;startArrow=classic;html=1;rounded=0;fontSize=18;" edge="1" parent="1">
          <mxGeometry width="50" height="50" relative="1" as="geometry">
            <mxPoint x="610" y="560" as="sourcePoint" />
            <mxPoint x="1090" y="560" as="targetPoint" />
            <Array as="points">
              <mxPoint x="860" y="560" />
            </Array>
          </mxGeometry>
        </mxCell>
        <mxCell id="dEzR0BeDHIfb-6gH03Ru-24" value="&lt;b&gt;&lt;i&gt;结点数量&lt;/i&gt;&lt;/b&gt;" style="edgeLabel;html=1;align=center;verticalAlign=middle;resizable=0;points=[];fontSize=18;" vertex="1" connectable="0" parent="dEzR0BeDHIfb-6gH03Ru-21">
          <mxGeometry x="-0.0768" relative="1" as="geometry">
            <mxPoint as="offset" />
          </mxGeometry>
        </mxCell>
        <mxCell id="dEzR0BeDHIfb-6gH03Ru-26" value="&lt;div style=&quot;text-align: center;&quot;&gt;&lt;span style=&quot;background-color: initial;&quot;&gt;&lt;b&gt;&lt;i&gt;0xff&lt;/i&gt;&lt;/b&gt;&lt;/span&gt;&lt;/div&gt;" style="text;whiteSpace=wrap;html=1;fontSize=18;" vertex="1" parent="1">
          <mxGeometry x="1130" y="550" width="40" height="30" as="geometry" />
        </mxCell>
        <mxCell id="dEzR0BeDHIfb-6gH03Ru-27" value="" style="shape=link;html=1;rounded=0;fontSize=18;fillColor=#dae8fc;strokeColor=#6c8ebf;" edge="1" parent="1">
          <mxGeometry width="100" relative="1" as="geometry">
            <mxPoint x="250" y="640" as="sourcePoint" />
            <mxPoint x="250" y="730" as="targetPoint" />
          </mxGeometry>
        </mxCell>
        <mxCell id="dEzR0BeDHIfb-6gH03Ru-28" value="&lt;b&gt;&lt;i&gt;&lt;font style=&quot;font-size: 18px;&quot;&gt;Zlbytes&lt;br&gt;总字节数&lt;br&gt;&lt;/font&gt;&lt;/i&gt;&lt;/b&gt;" style="rounded=0;whiteSpace=wrap;html=1;fillColor=#dae8fc;strokeColor=#6c8ebf;" vertex="1" parent="1">
          <mxGeometry x="240" y="860" width="120" height="60" as="geometry" />
        </mxCell>
        <mxCell id="dEzR0BeDHIfb-6gH03Ru-29" value="&lt;b&gt;&lt;i&gt;&lt;font style=&quot;font-size: 18px;&quot;&gt;Zltail&lt;br&gt;尾偏移量&lt;br&gt;&lt;/font&gt;&lt;/i&gt;&lt;/b&gt;" style="rounded=0;whiteSpace=wrap;html=1;fillColor=#dae8fc;strokeColor=#6c8ebf;" vertex="1" parent="1">
          <mxGeometry x="360" y="860" width="120" height="60" as="geometry" />
        </mxCell>
        <mxCell id="dEzR0BeDHIfb-6gH03Ru-30" value="&lt;b&gt;&lt;i&gt;&lt;font style=&quot;font-size: 18px;&quot;&gt;Zllen&lt;br&gt;结点数量&lt;br&gt;&lt;/font&gt;&lt;/i&gt;&lt;/b&gt;" style="rounded=0;whiteSpace=wrap;html=1;fillColor=#dae8fc;strokeColor=#6c8ebf;" vertex="1" parent="1">
          <mxGeometry x="480" y="860" width="120" height="60" as="geometry" />
        </mxCell>
        <mxCell id="dEzR0BeDHIfb-6gH03Ru-31" value="&lt;b&gt;&lt;i&gt;entry1&lt;br&gt;结点1&lt;br&gt;&lt;/i&gt;&lt;/b&gt;" style="rounded=0;whiteSpace=wrap;html=1;fontSize=18;fillColor=#fff2cc;strokeColor=#d6b656;" vertex="1" parent="1">
          <mxGeometry x="600" y="860" width="120" height="60" as="geometry" />
        </mxCell>
        <mxCell id="dEzR0BeDHIfb-6gH03Ru-32" value="&lt;b&gt;&lt;i&gt;entry2&lt;br&gt;结点2&lt;br&gt;&lt;/i&gt;&lt;/b&gt;" style="rounded=0;whiteSpace=wrap;html=1;fontSize=18;fillColor=#fff2cc;strokeColor=#d6b656;" vertex="1" parent="1">
          <mxGeometry x="720" y="860" width="120" height="60" as="geometry" />
        </mxCell>
        <mxCell id="dEzR0BeDHIfb-6gH03Ru-33" value="&lt;b&gt;&lt;i&gt;......&lt;br&gt;&lt;/i&gt;&lt;/b&gt;" style="rounded=0;whiteSpace=wrap;html=1;fontSize=18;fillColor=#fff2cc;strokeColor=#d6b656;" vertex="1" parent="1">
          <mxGeometry x="840" y="860" width="120" height="60" as="geometry" />
        </mxCell>
        <mxCell id="dEzR0BeDHIfb-6gH03Ru-34" value="&lt;b&gt;&lt;i&gt;entryN&lt;br&gt;结点N&lt;br&gt;&lt;/i&gt;&lt;/b&gt;" style="rounded=0;whiteSpace=wrap;html=1;fontSize=18;fillColor=#fff2cc;strokeColor=#d6b656;" vertex="1" parent="1">
          <mxGeometry x="960" y="860" width="120" height="60" as="geometry" />
        </mxCell>
        <mxCell id="dEzR0BeDHIfb-6gH03Ru-35" value="&lt;b&gt;&lt;i&gt;zlend&lt;br&gt;结束标识&lt;/i&gt;&lt;/b&gt;&lt;b&gt;&lt;i&gt;&lt;br&gt;&lt;/i&gt;&lt;/b&gt;" style="rounded=0;whiteSpace=wrap;html=1;fontSize=18;fillColor=#f8cecc;strokeColor=#b85450;" vertex="1" parent="1">
          <mxGeometry x="1080" y="860" width="120" height="60" as="geometry" />
        </mxCell>
        <mxCell id="dEzR0BeDHIfb-6gH03Ru-38" value="&lt;b&gt;&lt;i&gt;entry&lt;br&gt;&lt;/i&gt;&lt;/b&gt;" style="rounded=0;whiteSpace=wrap;html=1;fontSize=18;fillColor=#fff2cc;strokeColor=#d6b656;" vertex="1" parent="1">
          <mxGeometry x="240" y="1050" width="120" height="60" as="geometry" />
        </mxCell>
        <mxCell id="dEzR0BeDHIfb-6gH03Ru-39" value="=" style="text;html=1;align=center;verticalAlign=middle;resizable=0;points=[];autosize=1;strokeColor=none;fillColor=none;fontSize=18;" vertex="1" parent="1">
          <mxGeometry x="375" y="1065" width="30" height="30" as="geometry" />
        </mxCell>
        <mxCell id="dEzR0BeDHIfb-6gH03Ru-40" value="&lt;b&gt;&lt;i&gt;pre_entry_len&lt;br&gt;前一个结点长度&lt;br&gt;&lt;/i&gt;&lt;/b&gt;" style="rounded=0;whiteSpace=wrap;html=1;fontSize=18;fillColor=#e1d5e7;strokeColor=#9673a6;" vertex="1" parent="1">
          <mxGeometry x="420" y="1050" width="130" height="60" as="geometry" />
        </mxCell>
        <mxCell id="dEzR0BeDHIfb-6gH03Ru-41" value="&lt;b&gt;&lt;i&gt;encoding&lt;br&gt;编码方式&lt;br&gt;&lt;/i&gt;&lt;/b&gt;" style="rounded=0;whiteSpace=wrap;html=1;fontSize=18;fillColor=#e1d5e7;strokeColor=#9673a6;" vertex="1" parent="1">
          <mxGeometry x="550" y="1050" width="130" height="60" as="geometry" />
        </mxCell>
        <mxCell id="dEzR0BeDHIfb-6gH03Ru-42" value="&lt;b&gt;&lt;i&gt;content&lt;br&gt;存储内容&lt;br&gt;&lt;/i&gt;&lt;/b&gt;" style="rounded=0;whiteSpace=wrap;html=1;fontSize=18;fillColor=#d5e8d4;strokeColor=#82b366;" vertex="1" parent="1">
          <mxGeometry x="680" y="1050" width="130" height="60" as="geometry" />
        </mxCell>
        <mxCell id="dEzR0BeDHIfb-6gH03Ru-43" value="&lt;b&gt;&lt;i&gt;&lt;font style=&quot;font-size: 18px;&quot;&gt;Zlbytes&lt;br&gt;总字节数&lt;br&gt;&lt;/font&gt;&lt;/i&gt;&lt;/b&gt;" style="rounded=0;whiteSpace=wrap;html=1;fillColor=#dae8fc;strokeColor=#6c8ebf;" vertex="1" parent="1">
          <mxGeometry x="240" y="1160" width="120" height="60" as="geometry" />
        </mxCell>
        <mxCell id="dEzR0BeDHIfb-6gH03Ru-44" value="&lt;b&gt;&lt;i&gt;&lt;font style=&quot;font-size: 18px;&quot;&gt;Zltail&lt;br&gt;尾偏移量&lt;br&gt;&lt;/font&gt;&lt;/i&gt;&lt;/b&gt;" style="rounded=0;whiteSpace=wrap;html=1;fillColor=#dae8fc;strokeColor=#6c8ebf;" vertex="1" parent="1">
          <mxGeometry x="360" y="1160" width="120" height="60" as="geometry" />
        </mxCell>
        <mxCell id="dEzR0BeDHIfb-6gH03Ru-45" value="&lt;b&gt;&lt;i&gt;&lt;font style=&quot;font-size: 18px;&quot;&gt;Zllen&lt;br&gt;结点数量&lt;br&gt;&lt;/font&gt;&lt;/i&gt;&lt;/b&gt;" style="rounded=0;whiteSpace=wrap;html=1;fillColor=#dae8fc;strokeColor=#6c8ebf;" vertex="1" parent="1">
          <mxGeometry x="480" y="1160" width="120" height="60" as="geometry" />
        </mxCell>
        <mxCell id="dEzR0BeDHIfb-6gH03Ru-46" value="&lt;b&gt;&lt;i&gt;pre_entry_len&lt;br&gt;前一个结点长度&lt;br&gt;&lt;/i&gt;&lt;/b&gt;" style="rounded=0;whiteSpace=wrap;html=1;fontSize=18;fillColor=#e1d5e7;strokeColor=#9673a6;" vertex="1" parent="1">
          <mxGeometry x="600" y="1160" width="130" height="60" as="geometry" />
        </mxCell>
        <mxCell id="dEzR0BeDHIfb-6gH03Ru-47" value="&lt;b&gt;&lt;i&gt;encoding&lt;br&gt;编码方式&lt;br&gt;&lt;/i&gt;&lt;/b&gt;" style="rounded=0;whiteSpace=wrap;html=1;fontSize=18;fillColor=#e1d5e7;strokeColor=#9673a6;" vertex="1" parent="1">
          <mxGeometry x="730" y="1160" width="130" height="60" as="geometry" />
        </mxCell>
        <mxCell id="dEzR0BeDHIfb-6gH03Ru-48" value="&lt;b&gt;&lt;i&gt;content&lt;br&gt;存储内容&lt;br&gt;&lt;/i&gt;&lt;/b&gt;" style="rounded=0;whiteSpace=wrap;html=1;fontSize=18;fillColor=#d5e8d4;strokeColor=#82b366;" vertex="1" parent="1">
          <mxGeometry x="860" y="1160" width="130" height="60" as="geometry" />
        </mxCell>
        <mxCell id="dEzR0BeDHIfb-6gH03Ru-49" value="&lt;b&gt;&lt;i&gt;pre_entry_len&lt;br&gt;前一个结点长度&lt;br&gt;&lt;/i&gt;&lt;/b&gt;" style="rounded=0;whiteSpace=wrap;html=1;fontSize=18;fillColor=#e1d5e7;strokeColor=#9673a6;" vertex="1" parent="1">
          <mxGeometry x="990" y="1160" width="130" height="60" as="geometry" />
        </mxCell>
        <mxCell id="dEzR0BeDHIfb-6gH03Ru-50" value="&lt;b&gt;&lt;i&gt;encoding&lt;br&gt;编码方式&lt;br&gt;&lt;/i&gt;&lt;/b&gt;" style="rounded=0;whiteSpace=wrap;html=1;fontSize=18;fillColor=#e1d5e7;strokeColor=#9673a6;" vertex="1" parent="1">
          <mxGeometry x="1120" y="1160" width="130" height="60" as="geometry" />
        </mxCell>
        <mxCell id="dEzR0BeDHIfb-6gH03Ru-51" value="&lt;b&gt;&lt;i&gt;content&lt;br&gt;存储内容&lt;br&gt;&lt;/i&gt;&lt;/b&gt;" style="rounded=0;whiteSpace=wrap;html=1;fontSize=18;fillColor=#d5e8d4;strokeColor=#82b366;" vertex="1" parent="1">
          <mxGeometry x="1250" y="1160" width="130" height="60" as="geometry" />
        </mxCell>
        <mxCell id="dEzR0BeDHIfb-6gH03Ru-52" value="&lt;b&gt;&lt;i&gt;zlend&lt;br&gt;结束标识&lt;/i&gt;&lt;/b&gt;&lt;b&gt;&lt;i&gt;&lt;br&gt;&lt;/i&gt;&lt;/b&gt;" style="rounded=0;whiteSpace=wrap;html=1;fontSize=18;fillColor=#f8cecc;strokeColor=#b85450;" vertex="1" parent="1">
          <mxGeometry x="1380" y="1160" width="120" height="60" as="geometry" />
        </mxCell>
        <mxCell id="dEzR0BeDHIfb-6gH03Ru-53" value="&lt;b&gt;&lt;i&gt;0x00&lt;br&gt;0000 0000&lt;br&gt;&lt;/i&gt;&lt;/b&gt;" style="rounded=0;whiteSpace=wrap;html=1;fontSize=18;fillColor=#e1d5e7;strokeColor=#9673a6;" vertex="1" parent="1">
          <mxGeometry x="360" y="1340" width="130" height="60" as="geometry" />
        </mxCell>
        <mxCell id="dEzR0BeDHIfb-6gH03Ru-54" value="&lt;b&gt;&lt;i&gt;0x02&lt;br&gt;00 000010&lt;br&gt;&lt;/i&gt;&lt;/b&gt;" style="rounded=0;whiteSpace=wrap;html=1;fontSize=18;fillColor=#e1d5e7;strokeColor=#9673a6;" vertex="1" parent="1">
          <mxGeometry x="490" y="1340" width="130" height="60" as="geometry" />
        </mxCell>
        <mxCell id="dEzR0BeDHIfb-6gH03Ru-55" value="&lt;b&gt;&lt;i&gt;content&lt;br&gt;存储内容&lt;br&gt;&lt;/i&gt;&lt;/b&gt;" style="rounded=0;whiteSpace=wrap;html=1;fontSize=18;fillColor=#d5e8d4;strokeColor=#82b366;" vertex="1" parent="1">
          <mxGeometry x="620" y="1340" width="130" height="60" as="geometry" />
        </mxCell>
        <mxCell id="dEzR0BeDHIfb-6gH03Ru-56" value="&lt;b&gt;&lt;i&gt;content&lt;br&gt;存储内容&lt;br&gt;&lt;/i&gt;&lt;/b&gt;" style="rounded=0;whiteSpace=wrap;html=1;fontSize=18;fillColor=#d5e8d4;strokeColor=#82b366;" vertex="1" parent="1">
          <mxGeometry x="750" y="1340" width="130" height="60" as="geometry" />
        </mxCell>
      </root>
    </mxGraphModel>
  </diagram>
</mxfile>
